<svg width="449" height="158" viewBox="0 0 449 158" fill="none" xmlns="http://www.w3.org/2000/svg">
    <path fill-rule="evenodd" clip-rule="evenodd"
        d="M44.4509 90.3667C43.4774 90.3667 42.507 90.0788 41.9221 89.3007C41.0693 88.1664 40 86.0348 40 82.4772C40 78.9197 41.0693 76.7881 41.9221 75.6537C42.507 74.8757 43.4774 74.5878 44.4509 74.5878L72.686 74.5878L58.2509 49.5808C57.6485 48.5372 57.4361 47.2925 57.9897 46.2223C58.647 44.9515 59.8951 43.2182 62.1848 41.8492C64.4451 40.4977 66.8696 40.0937 68.5992 40.0046C70.1034 39.9271 71.4173 40.8323 72.1703 42.1368L86.3516 66.7041L96.836 48.5588C97.4368 47.5189 98.3087 46.623 99.4944 46.4321C101.008 46.1885 103.445 46.2649 106.554 47.9611C110.166 49.9316 111.122 52.3395 111.358 53.7281C111.484 54.4721 111.22 55.2001 110.842 55.8538L100.028 74.5878L115.464 74.5878C117.071 74.5878 118.588 75.385 119.112 76.9042C119.571 78.2315 120 80.1077 120 82.4772C120 84.8468 119.571 86.723 119.112 88.0502C118.588 89.5695 117.071 90.3667 115.464 90.3667L100.011 90.3667L107.709 103.704C108.142 104.453 108.38 105.317 108.085 106.131C107.641 107.354 106.505 109.273 103.596 111.076C100.811 112.803 98.2495 113.08 96.599 113.011C95.3669 112.96 94.3653 112.145 93.7487 111.077L86.3571 98.2714L76.1142 116.016C75.3948 117.262 74.1501 118.144 72.7203 117.98C71.3003 117.819 69.3227 117.328 67.1147 116.007C64.9805 114.731 63.5512 113.297 62.646 112.16C61.6791 110.945 61.7752 109.299 62.5512 107.955L72.7037 90.3667L44.4509 90.3667ZM91.3579 90.1177C95.4074 87.7792 96.6471 82.4436 93.947 77.7661C91.2469 73.0885 86.1028 71.5162 81.991 73.8907C77.9414 76.2291 76.7307 81.471 79.4308 86.1486C82.1309 90.8261 87.3083 92.4562 91.3579 90.1177Z"
        fill="#4281FF" />
    <path
        d="M349.962 96.8V68H359.722V79C361.362 74.52 364.322 72.36 369.122 72.36C375.442 72.36 378.762 76.2 378.762 83.56V96.8H368.962V85.64C368.962 82.12 367.442 80.28 364.562 80.28C361.362 80.28 359.722 82.16 359.722 85.8V96.8H349.962Z"
        fill="#F3F3F3" />
    <path
        d="M335.956 97.6001C325.916 97.6001 320.716 91.9201 320.716 84.8801C320.716 77.8001 326.156 72.3601 336.116 72.3601C340.756 72.3601 343.876 73.4801 346.076 74.8801V82.2001C344.396 81.0401 341.876 80.0401 338.836 80.0401C333.756 80.0401 330.916 82.1201 330.916 84.9601C330.916 87.6801 333.476 89.8801 338.876 89.8801C341.716 89.8801 344.436 88.9201 346.156 87.8801V94.9601C343.356 96.6401 339.916 97.6001 335.956 97.6001Z"
        fill="#F3F3F3" />
    <path
        d="M300.254 97.6001C294.814 97.6001 291.694 94.3201 291.694 90.0001C291.694 85.5201 295.094 82.3601 300.814 82.3601C304.094 82.3601 306.454 83.2801 308.294 85.4801C308.014 81.7601 304.894 79.9201 300.614 79.9201C297.694 79.9201 294.974 80.9601 292.814 82.8001V75.4801C295.334 73.7601 298.894 72.3601 303.814 72.3601C312.854 72.3601 317.814 76.8401 317.814 85.0401V96.8001H308.334V93.8801C306.694 96.2801 304.054 97.6001 300.254 97.6001ZM304.214 92.0801C306.614 92.0801 308.334 91.0401 308.334 89.4001C308.334 87.8401 306.694 86.8001 304.254 86.8001C302.014 86.8001 300.614 87.8801 300.614 89.4401C300.614 91.0401 302.014 92.0801 304.214 92.0801Z"
        fill="#F3F3F3" />
    <path
        d="M277.218 97.6001C267.378 97.6001 261.458 92.3201 261.458 84.7601C261.458 77.6401 266.818 72.3601 275.938 72.3601C284.938 72.3601 289.258 77.0401 289.258 84.1601V86.8401H271.378C272.538 88.9601 275.338 90.2001 279.738 90.2001C283.258 90.2001 285.938 89.3201 288.458 87.8001V94.7201C285.898 96.4001 281.738 97.6001 277.218 97.6001ZM271.138 82.5601H281.378C280.978 80.5201 279.258 79.3601 276.418 79.3601C273.538 79.3601 271.698 80.6401 271.138 82.5601Z"
        fill="#F3F3F3" />
    <path
        d="M228.838 96.8001V68.8H248.558C255.198 68.8 259.358 72.5601 259.358 78.24C259.358 83.24 256.198 86.7201 251.358 87.1201L259.638 96.8001H247.878L238.838 85.3201V96.8001H228.838ZM238.838 82.3601H244.478C247.438 82.3601 248.998 81.2001 248.998 79C248.998 76.92 247.558 75.84 244.758 75.84H238.838V82.3601Z"
        fill="#F3F3F3" />
    <path
        d="M195.704 96.8001V73.4001H205.384V79.2001C207.024 74.5601 209.984 72.3601 214.864 72.3601C221.184 72.3601 224.504 76.2001 224.504 83.5601V96.8001H214.704V85.6401C214.704 82.1201 213.184 80.2801 210.304 80.2801C207.104 80.2801 205.464 82.1601 205.464 85.8001V96.8001H195.704Z"
        fill="#F3F3F3" />
    <path d="M165.44 96.8001V68.8H191.4V75.92H175.44V79.3601H190.6V85.92H175.44V89.6801H191.52V96.8001H165.44Z"
        fill="#F3F3F3" />
</svg>