<svg width="237" height="145" viewBox="0 0 237 145" fill="none" xmlns="http://www.w3.org/2000/svg">
<path d="M7.78063 141H6.50063V129.8H7.90863L12.0686 139.24L16.2126 129.8H17.6046V141H16.3246V132.328L12.5166 141H11.6046L7.78063 132.328V141ZM23.6568 141.112C22.8994 141.112 22.2221 140.947 21.6248 140.616C21.0274 140.285 20.5581 139.816 20.2168 139.208C19.8754 138.589 19.7048 137.859 19.7048 137.016C19.7048 136.163 19.8754 135.427 20.2168 134.808C20.5688 134.189 21.0434 133.715 21.6408 133.384C22.2488 133.053 22.9314 132.888 23.6888 132.888C24.4461 132.888 25.1234 133.053 25.7208 133.384C26.3288 133.715 26.8034 134.189 27.1448 134.808C27.4968 135.416 27.6728 136.141 27.6728 136.984C27.6728 137.837 27.4968 138.573 27.1448 139.192C26.7928 139.811 26.3128 140.285 25.7048 140.616C25.0968 140.947 24.4141 141.112 23.6568 141.112ZM23.6408 139.976C24.1101 139.976 24.5528 139.875 24.9688 139.672C25.3848 139.459 25.7208 139.133 25.9768 138.696C26.2434 138.248 26.3768 137.683 26.3768 137C26.3768 136.307 26.2488 135.741 25.9928 135.304C25.7368 134.867 25.4008 134.547 24.9848 134.344C24.5794 134.131 24.1421 134.024 23.6727 134.024C23.2034 134.024 22.7661 134.131 22.3608 134.344C21.9554 134.547 21.6248 134.872 21.3688 135.32C21.1234 135.757 21.0008 136.317 21.0008 137C21.0008 137.693 21.1234 138.259 21.3688 138.696C21.6141 139.133 21.9341 139.459 22.3288 139.672C22.7341 139.875 23.1714 139.976 23.6408 139.976ZM29.6383 133H30.7423L30.8063 134.168C31.0196 133.88 31.2756 133.635 31.5743 133.432C31.8836 133.229 32.2196 133.091 32.5823 133.016C32.9556 132.931 33.3503 132.925 33.7663 133V134.2C33.3183 134.115 32.9129 134.115 32.5503 134.2C32.1983 134.285 31.8943 134.445 31.6383 134.68C31.3823 134.915 31.1849 135.213 31.0463 135.576C30.9076 135.928 30.8383 136.339 30.8383 136.808V141H29.6383V133ZM38.7639 141.112C38.0172 141.112 37.3505 140.931 36.7639 140.568C36.1879 140.205 35.7345 139.709 35.4039 139.08C35.0732 138.451 34.9079 137.731 34.9079 136.92C34.9079 136.141 35.0732 135.448 35.4039 134.84C35.7345 134.232 36.1879 133.757 36.7639 133.416C37.3399 133.064 37.9959 132.888 38.7319 132.888C39.4572 132.888 40.1025 133.048 40.6679 133.368C41.2439 133.688 41.6919 134.131 42.0119 134.696C42.3319 135.261 42.4812 135.907 42.4599 136.632C42.4599 136.749 42.4545 136.872 42.4439 137C42.4332 137.128 42.4225 137.267 42.4119 137.416H36.2199C36.2412 137.917 36.3639 138.36 36.5879 138.744C36.8119 139.128 37.1052 139.432 37.4679 139.656C37.8412 139.869 38.2625 139.976 38.7319 139.976C39.3505 139.976 39.8732 139.859 40.2999 139.624C40.7372 139.389 41.0519 139.053 41.2439 138.616L42.2839 139.032C41.9639 139.704 41.4999 140.221 40.8919 140.584C40.2839 140.936 39.5745 141.112 38.7639 141.112ZM41.1479 136.376C41.1585 135.917 41.0572 135.512 40.8439 135.16C40.6412 134.808 40.3532 134.531 39.9799 134.328C39.6065 134.125 39.1745 134.024 38.6839 134.024C38.2572 134.024 37.8679 134.125 37.5159 134.328C37.1639 134.531 36.8705 134.813 36.6359 135.176C36.4119 135.528 36.2785 135.928 36.2359 136.376H41.1479ZM56.3915 130.92H50.3275V134.744H54.8875V135.864H50.3275V139.88H56.3915V141H49.0475V129.8H56.3915V130.92ZM58.3495 129.8H59.7575L63.1015 134.376L66.4455 129.8H67.8695L63.8215 135.4L67.8695 141H66.4455L63.1015 136.424L59.7575 141H58.3495L62.3815 135.4L58.3495 129.8ZM74.0776 135.304C74.675 135.304 75.1603 135.213 75.5336 135.032C75.907 134.851 76.179 134.595 76.3496 134.264C76.531 133.933 76.6216 133.549 76.6216 133.112C76.6216 132.419 76.419 131.88 76.0136 131.496C75.619 131.112 74.9736 130.92 74.0776 130.92H71.4056V135.304H74.0776ZM77.8856 133.112C77.8856 133.549 77.811 133.971 77.6616 134.376C77.523 134.771 77.299 135.123 76.9896 135.432C76.6803 135.741 76.2856 135.987 75.8056 136.168C75.3256 136.339 74.7496 136.424 74.0776 136.424H71.4056V141H70.1256V129.8H74.0776C74.9523 129.8 75.667 129.949 76.2216 130.248C76.787 130.547 77.203 130.947 77.4696 131.448C77.747 131.949 77.8856 132.504 77.8856 133.112ZM84.7909 133V130.76H85.9909V133H88.1189V134.12H85.9909V138.424C85.9909 138.915 86.0922 139.272 86.2949 139.496C86.5082 139.72 86.7749 139.853 87.0949 139.896C87.4255 139.939 87.7669 139.939 88.1189 139.896V140.936C87.7029 141.032 87.2922 141.059 86.8869 141.016C86.4922 140.973 86.1349 140.856 85.8149 140.664C85.5055 140.461 85.2549 140.179 85.0629 139.816C84.8815 139.453 84.7909 138.989 84.7909 138.424V134.12H83.5909V133H84.7909ZM94.9119 141L94.8159 139.56C94.5919 140.051 94.2612 140.435 93.8239 140.712C93.3865 140.979 92.8319 141.112 92.1599 141.112C91.5839 141.112 91.0932 141.021 90.6879 140.84C90.2825 140.659 89.9679 140.403 89.7439 140.072C89.5305 139.731 89.4239 139.331 89.4239 138.872C89.4239 138.2 89.6745 137.651 90.1759 137.224C90.6772 136.787 91.4025 136.52 92.3519 136.424L94.8159 136.152V135.512C94.8159 135.064 94.6505 134.707 94.3199 134.44C93.9892 134.163 93.5412 134.024 92.9759 134.024C92.4212 134.024 91.9572 134.152 91.5839 134.408C91.2212 134.664 90.9705 135.032 90.8319 135.512L89.7439 135.128C89.9572 134.424 90.3465 133.875 90.9119 133.48C91.4879 133.085 92.1865 132.888 93.0079 132.888C93.9572 132.888 94.6932 133.133 95.2159 133.624C95.7492 134.104 96.0159 134.76 96.0159 135.592V141H94.9119ZM94.8159 137.176L92.3359 137.464C91.8025 137.528 91.3972 137.677 91.1199 137.912C90.8425 138.136 90.7039 138.435 90.7039 138.808C90.7039 139.181 90.8372 139.48 91.1039 139.704C91.3812 139.928 91.7759 140.04 92.2879 140.04C92.8745 140.04 93.3545 139.923 93.7279 139.688C94.1012 139.453 94.3732 139.139 94.5439 138.744C94.7252 138.339 94.8159 137.901 94.8159 137.432V137.176ZM99.013 138.552C99.077 138.872 99.1943 139.139 99.365 139.352C99.5357 139.555 99.7543 139.709 100.021 139.816C100.298 139.923 100.618 139.976 100.981 139.976C101.546 139.976 101.973 139.869 102.261 139.656C102.56 139.432 102.709 139.155 102.709 138.824C102.709 138.547 102.618 138.323 102.437 138.152C102.266 137.981 102.037 137.843 101.749 137.736C101.461 137.619 101.141 137.517 100.789 137.432C100.512 137.368 100.213 137.293 99.893 137.208C99.573 137.112 99.269 136.984 98.981 136.824C98.693 136.664 98.4583 136.456 98.277 136.2C98.0957 135.944 98.005 135.608 98.005 135.192C98.005 134.733 98.1277 134.333 98.373 133.992C98.629 133.64 98.9757 133.368 99.413 133.176C99.861 132.984 100.373 132.888 100.949 132.888C101.61 132.888 102.197 133.032 102.709 133.32C103.232 133.608 103.594 134.056 103.797 134.664L102.677 135.048C102.602 134.771 102.464 134.557 102.261 134.408C102.069 134.259 101.85 134.157 101.605 134.104C101.37 134.051 101.136 134.024 100.901 134.024C100.421 134.024 100.032 134.12 99.733 134.312C99.445 134.493 99.301 134.771 99.301 135.144C99.301 135.347 99.349 135.517 99.445 135.656C99.541 135.784 99.6743 135.891 99.845 135.976C100.016 136.061 100.218 136.136 100.453 136.2C100.688 136.253 100.944 136.317 101.221 136.392C101.53 136.467 101.845 136.563 102.165 136.68C102.485 136.787 102.784 136.931 103.061 137.112C103.338 137.283 103.562 137.507 103.733 137.784C103.914 138.051 104.005 138.387 104.005 138.792C104.005 139.261 103.877 139.672 103.621 140.024C103.365 140.365 103.008 140.632 102.549 140.824C102.101 141.016 101.578 141.112 100.981 141.112C100.16 141.112 99.477 140.931 98.933 140.568C98.3997 140.195 98.0423 139.651 97.861 138.936L99.013 138.552ZM105.951 129.48H107.167V136.472H107.903L111.055 133H112.751L108.975 137L112.767 141H111.055L107.903 137.512H107.167V141H105.951V129.48ZM114.888 138.552C114.952 138.872 115.069 139.139 115.24 139.352C115.411 139.555 115.629 139.709 115.896 139.816C116.173 139.923 116.493 139.976 116.856 139.976C117.421 139.976 117.848 139.869 118.136 139.656C118.435 139.432 118.584 139.155 118.584 138.824C118.584 138.547 118.493 138.323 118.312 138.152C118.141 137.981 117.912 137.843 117.624 137.736C117.336 137.619 117.016 137.517 116.664 137.432C116.387 137.368 116.088 137.293 115.768 137.208C115.448 137.112 115.144 136.984 114.856 136.824C114.568 136.664 114.333 136.456 114.152 136.2C113.971 135.944 113.88 135.608 113.88 135.192C113.88 134.733 114.003 134.333 114.248 133.992C114.504 133.64 114.851 133.368 115.288 133.176C115.736 132.984 116.248 132.888 116.824 132.888C117.485 132.888 118.072 133.032 118.584 133.32C119.107 133.608 119.469 134.056 119.672 134.664L118.552 135.048C118.477 134.771 118.339 134.557 118.136 134.408C117.944 134.259 117.725 134.157 117.48 134.104C117.245 134.051 117.011 134.024 116.776 134.024C116.296 134.024 115.907 134.12 115.608 134.312C115.32 134.493 115.176 134.771 115.176 135.144C115.176 135.347 115.224 135.517 115.32 135.656C115.416 135.784 115.549 135.891 115.72 135.976C115.891 136.061 116.093 136.136 116.328 136.2C116.563 136.253 116.819 136.317 117.096 136.392C117.405 136.467 117.72 136.563 118.04 136.68C118.36 136.787 118.659 136.931 118.936 137.112C119.213 137.283 119.437 137.507 119.608 137.784C119.789 138.051 119.88 138.387 119.88 138.792C119.88 139.261 119.752 139.672 119.496 140.024C119.24 140.365 118.883 140.632 118.424 140.824C117.976 141.016 117.453 141.112 116.856 141.112C116.035 141.112 115.352 140.931 114.808 140.568C114.275 140.195 113.917 139.651 113.736 138.936L114.888 138.552ZM129.718 141.112C128.939 141.112 128.257 140.941 127.67 140.6C127.083 140.259 126.625 139.784 126.294 139.176C125.974 138.557 125.814 137.843 125.814 137.032C125.814 136.211 125.974 135.491 126.294 134.872C126.625 134.243 127.083 133.757 127.67 133.416C128.257 133.064 128.939 132.888 129.718 132.888C130.539 132.888 131.259 133.08 131.878 133.464C132.497 133.837 132.945 134.36 133.222 135.032L132.118 135.416C131.958 134.989 131.665 134.653 131.238 134.408C130.822 134.152 130.337 134.024 129.782 134.024C129.238 134.024 128.763 134.147 128.358 134.392C127.963 134.637 127.654 134.984 127.43 135.432C127.217 135.88 127.11 136.408 127.11 137.016C127.11 137.912 127.35 138.632 127.83 139.176C128.31 139.709 128.95 139.976 129.75 139.976C130.294 139.976 130.779 139.853 131.206 139.608C131.633 139.363 131.947 139.032 132.15 138.616L133.238 139C132.95 139.661 132.497 140.179 131.878 140.552C131.259 140.925 130.539 141.112 129.718 141.112ZM138.657 141.112C137.899 141.112 137.222 140.947 136.625 140.616C136.027 140.285 135.558 139.816 135.217 139.208C134.875 138.589 134.705 137.859 134.705 137.016C134.705 136.163 134.875 135.427 135.217 134.808C135.569 134.189 136.043 133.715 136.641 133.384C137.249 133.053 137.931 132.888 138.689 132.888C139.446 132.888 140.123 133.053 140.721 133.384C141.329 133.715 141.803 134.189 142.145 134.808C142.497 135.416 142.673 136.141 142.673 136.984C142.673 137.837 142.497 138.573 142.145 139.192C141.793 139.811 141.313 140.285 140.705 140.616C140.097 140.947 139.414 141.112 138.657 141.112ZM138.641 139.976C139.11 139.976 139.553 139.875 139.969 139.672C140.385 139.459 140.721 139.133 140.977 138.696C141.243 138.248 141.377 137.683 141.377 137C141.377 136.307 141.249 135.741 140.993 135.304C140.737 134.867 140.401 134.547 139.985 134.344C139.579 134.131 139.142 134.024 138.673 134.024C138.203 134.024 137.766 134.131 137.361 134.344C136.955 134.547 136.625 134.872 136.369 135.32C136.123 135.757 136.001 136.317 136.001 137C136.001 137.693 136.123 138.259 136.369 138.696C136.614 139.133 136.934 139.459 137.329 139.672C137.734 139.875 138.171 139.976 138.641 139.976ZM144.638 133H145.742L145.822 134.152C146.057 133.768 146.372 133.464 146.766 133.24C147.172 133.005 147.652 132.888 148.206 132.888C148.772 132.888 149.284 133.027 149.742 133.304C150.212 133.571 150.574 133.971 150.83 134.504C151.076 133.96 151.449 133.555 151.95 133.288C152.452 133.021 153.006 132.888 153.614 132.888C154.212 132.888 154.74 133.021 155.198 133.288C155.657 133.544 156.014 133.933 156.27 134.456C156.526 134.968 156.654 135.613 156.654 136.392V141H155.454V136.536C155.454 135.704 155.273 135.075 154.91 134.648C154.558 134.211 154.052 133.992 153.39 133.992C152.718 133.992 152.185 134.227 151.79 134.696C151.396 135.155 151.198 135.837 151.198 136.744V141H149.998V136.536C149.998 135.704 149.828 135.075 149.486 134.648C149.145 134.211 148.644 133.992 147.982 133.992C147.31 133.992 146.782 134.227 146.398 134.696C146.025 135.155 145.838 135.837 145.838 136.744V141H144.638V133ZM159.222 133H160.406V141H159.222V133ZM159.83 131.4C159.585 131.4 159.382 131.32 159.222 131.16C159.062 131 158.982 130.803 158.982 130.568C158.982 130.323 159.062 130.12 159.222 129.96C159.382 129.8 159.585 129.72 159.83 129.72C160.054 129.72 160.246 129.8 160.406 129.96C160.577 130.12 160.662 130.323 160.662 130.568C160.662 130.803 160.577 131 160.406 131.16C160.246 131.32 160.054 131.4 159.83 131.4ZM163.107 133H164.211L164.275 134.136C164.531 133.741 164.867 133.437 165.283 133.224C165.699 133 166.184 132.888 166.739 132.888C167.347 132.888 167.88 133.021 168.339 133.288C168.798 133.544 169.155 133.933 169.411 134.456C169.667 134.968 169.795 135.613 169.795 136.392V141H168.595V136.536C168.595 135.704 168.414 135.075 168.051 134.648C167.699 134.211 167.187 133.992 166.515 133.992C165.822 133.992 165.278 134.221 164.883 134.68C164.499 135.139 164.307 135.816 164.307 136.712V141H163.107V133ZM178.267 133H179.371V139.528C179.371 140.509 179.152 141.347 178.715 142.04C178.277 142.744 177.643 143.277 176.811 143.64C175.979 144.013 174.965 144.2 173.771 144.2L173.579 143.096C175.083 143.075 176.224 142.76 177.003 142.152C177.781 141.555 178.171 140.68 178.171 139.528V139.352L178.299 139.384C178.053 139.853 177.685 140.259 177.195 140.6C176.704 140.931 176.069 141.101 175.291 141.112C174.555 141.112 173.909 140.947 173.355 140.616C172.811 140.275 172.384 139.795 172.075 139.176C171.776 138.557 171.627 137.832 171.627 137C171.627 136.168 171.776 135.448 172.075 134.84C172.384 134.221 172.811 133.741 173.355 133.4C173.909 133.059 174.555 132.888 175.291 132.888C175.771 132.888 176.197 132.963 176.571 133.112C176.944 133.251 177.264 133.443 177.531 133.688C177.797 133.923 178.016 134.189 178.187 134.488L178.267 133ZM172.923 137C172.923 137.917 173.157 138.648 173.627 139.192C174.107 139.725 174.752 139.992 175.563 139.992C176.053 139.992 176.496 139.875 176.891 139.64C177.285 139.405 177.595 139.064 177.819 138.616C178.053 138.168 178.171 137.629 178.171 137C178.171 136.371 178.053 135.837 177.819 135.4C177.595 134.952 177.285 134.611 176.891 134.376C176.496 134.131 176.053 134.008 175.563 134.008C174.763 134.008 174.123 134.28 173.643 134.824C173.163 135.368 172.923 136.093 172.923 137ZM186.966 138.552C187.03 138.872 187.147 139.139 187.318 139.352C187.489 139.555 187.707 139.709 187.974 139.816C188.251 139.923 188.571 139.976 188.934 139.976C189.499 139.976 189.926 139.869 190.214 139.656C190.513 139.432 190.662 139.155 190.662 138.824C190.662 138.547 190.571 138.323 190.39 138.152C190.219 137.981 189.99 137.843 189.702 137.736C189.414 137.619 189.094 137.517 188.742 137.432C188.465 137.368 188.166 137.293 187.846 137.208C187.526 137.112 187.222 136.984 186.934 136.824C186.646 136.664 186.411 136.456 186.23 136.2C186.049 135.944 185.958 135.608 185.958 135.192C185.958 134.733 186.081 134.333 186.326 133.992C186.582 133.64 186.929 133.368 187.366 133.176C187.814 132.984 188.326 132.888 188.902 132.888C189.563 132.888 190.15 133.032 190.662 133.32C191.185 133.608 191.547 134.056 191.75 134.664L190.63 135.048C190.555 134.771 190.417 134.557 190.214 134.408C190.022 134.259 189.803 134.157 189.558 134.104C189.323 134.051 189.089 134.024 188.854 134.024C188.374 134.024 187.985 134.12 187.686 134.312C187.398 134.493 187.254 134.771 187.254 135.144C187.254 135.347 187.302 135.517 187.398 135.656C187.494 135.784 187.627 135.891 187.798 135.976C187.969 136.061 188.171 136.136 188.406 136.2C188.641 136.253 188.897 136.317 189.174 136.392C189.483 136.467 189.798 136.563 190.118 136.68C190.438 136.787 190.737 136.931 191.014 137.112C191.291 137.283 191.515 137.507 191.686 137.784C191.867 138.051 191.958 138.387 191.958 138.792C191.958 139.261 191.83 139.672 191.574 140.024C191.318 140.365 190.961 140.632 190.502 140.824C190.054 141.016 189.531 141.112 188.934 141.112C188.113 141.112 187.43 140.931 186.886 140.568C186.353 140.195 185.995 139.651 185.814 138.936L186.966 138.552ZM197.36 141.112C196.603 141.112 195.925 140.947 195.328 140.616C194.731 140.285 194.261 139.816 193.92 139.208C193.579 138.589 193.408 137.859 193.408 137.016C193.408 136.163 193.579 135.427 193.92 134.808C194.272 134.189 194.747 133.715 195.344 133.384C195.952 133.053 196.635 132.888 197.392 132.888C198.149 132.888 198.827 133.053 199.424 133.384C200.032 133.715 200.507 134.189 200.848 134.808C201.2 135.416 201.376 136.141 201.376 136.984C201.376 137.837 201.2 138.573 200.848 139.192C200.496 139.811 200.016 140.285 199.408 140.616C198.8 140.947 198.117 141.112 197.36 141.112ZM197.344 139.976C197.813 139.976 198.256 139.875 198.672 139.672C199.088 139.459 199.424 139.133 199.68 138.696C199.947 138.248 200.08 137.683 200.08 137C200.08 136.307 199.952 135.741 199.696 135.304C199.44 134.867 199.104 134.547 198.688 134.344C198.283 134.131 197.845 134.024 197.376 134.024C196.907 134.024 196.469 134.131 196.064 134.344C195.659 134.547 195.328 134.872 195.072 135.32C194.827 135.757 194.704 136.317 194.704 137C194.704 137.693 194.827 138.259 195.072 138.696C195.317 139.133 195.637 139.459 196.032 139.672C196.437 139.875 196.875 139.976 197.344 139.976ZM206.797 141.112C206.04 141.112 205.363 140.947 204.765 140.616C204.168 140.285 203.699 139.816 203.357 139.208C203.016 138.589 202.845 137.859 202.845 137.016C202.845 136.163 203.016 135.427 203.357 134.808C203.709 134.189 204.184 133.715 204.781 133.384C205.389 133.053 206.072 132.888 206.829 132.888C207.587 132.888 208.264 133.053 208.861 133.384C209.469 133.715 209.944 134.189 210.285 134.808C210.637 135.416 210.813 136.141 210.813 136.984C210.813 137.837 210.637 138.573 210.285 139.192C209.933 139.811 209.453 140.285 208.845 140.616C208.237 140.947 207.555 141.112 206.797 141.112ZM206.781 139.976C207.251 139.976 207.693 139.875 208.109 139.672C208.525 139.459 208.861 139.133 209.117 138.696C209.384 138.248 209.517 137.683 209.517 137C209.517 136.307 209.389 135.741 209.133 135.304C208.877 134.867 208.541 134.547 208.125 134.344C207.72 134.131 207.283 134.024 206.813 134.024C206.344 134.024 205.907 134.131 205.501 134.344C205.096 134.547 204.765 134.872 204.509 135.32C204.264 135.757 204.141 136.317 204.141 137C204.141 137.693 204.264 138.259 204.509 138.696C204.755 139.133 205.075 139.459 205.469 139.672C205.875 139.875 206.312 139.976 206.781 139.976ZM212.779 133H213.883L213.947 134.136C214.203 133.741 214.539 133.437 214.955 133.224C215.371 133 215.856 132.888 216.411 132.888C217.019 132.888 217.552 133.021 218.011 133.288C218.47 133.544 218.827 133.933 219.083 134.456C219.339 134.968 219.467 135.613 219.467 136.392V141H218.267V136.536C218.267 135.704 218.086 135.075 217.723 134.648C217.371 134.211 216.859 133.992 216.187 133.992C215.494 133.992 214.95 134.221 214.555 134.68C214.171 135.139 213.979 135.816 213.979 136.712V141H212.779V133ZM222.451 141.08C222.205 141.08 221.997 140.995 221.827 140.824C221.667 140.653 221.587 140.445 221.587 140.2C221.587 139.955 221.667 139.747 221.827 139.576C221.997 139.405 222.205 139.32 222.451 139.32C222.685 139.32 222.888 139.405 223.059 139.576C223.229 139.747 223.315 139.955 223.315 140.2C223.315 140.445 223.229 140.653 223.059 140.824C222.888 140.995 222.685 141.08 222.451 141.08ZM226.216 141.08C225.971 141.08 225.763 140.995 225.592 140.824C225.432 140.653 225.352 140.445 225.352 140.2C225.352 139.955 225.432 139.747 225.592 139.576C225.763 139.405 225.971 139.32 226.216 139.32C226.451 139.32 226.653 139.405 226.824 139.576C226.995 139.747 227.08 139.955 227.08 140.2C227.08 140.445 226.995 140.653 226.824 140.824C226.653 140.995 226.451 141.08 226.216 141.08ZM229.982 141.08C229.736 141.08 229.528 140.995 229.358 140.824C229.198 140.653 229.118 140.445 229.118 140.2C229.118 139.955 229.198 139.747 229.358 139.576C229.528 139.405 229.736 139.32 229.982 139.32C230.216 139.32 230.419 139.405 230.59 139.576C230.76 139.747 230.846 139.955 230.846 140.2C230.846 140.445 230.76 140.653 230.59 140.824C230.419 140.995 230.216 141.08 229.982 141.08Z" fill="white" fill-opacity="0.7"/>
<path d="M23.0392 47.3574C9.85418 47.3574 2.47418 40.1574 2.47418 30.7524C2.47418 21.2124 9.98918 13.7874 23.3542 13.7874C28.8892 13.7874 33.1642 14.9574 36.9442 16.8474V26.1624C34.5142 24.4524 30.5542 23.1474 26.0542 23.1474C18.8542 23.1474 14.7592 26.1624 14.7592 30.4824C14.7592 34.8474 18.9442 37.9074 26.0542 37.9074C30.6442 37.9074 34.6042 36.5574 37.0342 34.6224V43.7124C32.8042 46.1874 28.7092 47.3574 23.0392 47.3574ZM61.0508 47.3574C48.4508 47.3574 40.5308 39.7524 40.5308 30.3924C40.5308 20.8074 48.4508 13.7874 61.0958 13.7874C73.6058 13.7874 81.5708 20.8074 81.5708 30.3924C81.5708 39.7974 73.6058 47.3574 61.0508 47.3574ZM61.0508 38.2224C66.1808 38.2224 69.4658 35.0274 69.4658 30.4824C69.4658 25.9824 66.1808 22.9224 61.0508 22.9224C55.8758 22.9224 52.5908 25.9824 52.5908 30.4824C52.5908 35.0274 55.8758 38.2224 61.0508 38.2224ZM85.0622 46.3224L87.0422 14.8224H103.557L108.912 32.5074L114.402 14.8224H130.872L133.257 46.3224H122.322L120.837 24.0924L114.087 46.3224H102.792L96.6272 25.0374L95.3672 46.3224H85.0622ZM138.169 46.3224V14.7774H149.419V46.3224H138.169ZM155.352 46.3224V14.8224H170.157L180.822 34.3524V14.8224H190.767V46.3224H176.412L165.342 26.4324V46.3224H155.352ZM215.784 47.3124C202.824 47.3124 195.174 40.2474 195.174 30.6174C195.174 21.4824 202.104 13.8324 217.044 13.8324C223.344 13.8324 228.114 15.1824 231.534 16.7124V25.8024C228.654 24.4524 224.469 23.3724 219.564 23.3724C210.114 23.3724 206.919 27.1074 206.919 31.0674C206.919 35.3874 210.474 38.2674 216.369 38.2674C220.374 38.2674 223.074 36.9624 224.154 34.6674H211.149L213.039 27.1524H234.369V31.4724C234.369 41.9574 227.034 47.3124 215.784 47.3124Z" fill="white"/>
<path d="M27.6537 113.179C18.7577 113.163 11.2741 110.781 6.09608 107.571L6.11757 95.9872C11.5513 99.3893 18.5869 101.77 25.8829 101.784C30.9388 101.793 33.3725 100.902 33.3762 98.9178C33.3794 97.1898 32.0372 96.2273 27.5586 95.451L21.1608 94.2871C10.4123 92.3472 5.81301 87.6666 5.8269 80.1787C5.84269 71.6667 13.2778 65.6645 28.7658 65.6932C38.2378 65.7108 44.2493 68.1539 47.5735 70.2081L47.5528 81.3441C44.3561 79.5461 38.2801 77.4229 30.7921 77.409C24.8401 77.3979 22.5342 78.4176 22.5311 80.0816C22.5284 81.5536 23.6792 82.1958 27.7741 82.7794L34.94 83.9447C45.3047 85.6919 50.2253 89.733 50.2102 97.861C50.1928 107.205 41.1577 113.204 27.6537 113.179ZM83.4329 113.411C65.5129 113.377 54.269 102.541 54.2937 89.2286C54.319 75.5966 65.6015 65.6335 83.5855 65.6669C101.377 65.6999 112.687 75.7049 112.662 89.3369C112.637 102.713 101.289 113.444 83.4329 113.411ZM83.457 100.419C90.753 100.432 95.4334 95.8969 95.4454 89.4329C95.4573 83.0329 90.7933 78.6723 83.4974 78.6587C76.1374 78.6451 71.4573 82.9884 71.4454 89.3884C71.4334 95.8524 76.097 100.405 83.457 100.419ZM145.87 113.527C127.95 113.493 116.706 102.656 116.731 89.3444C116.756 75.7124 128.039 65.7494 146.023 65.7827C163.815 65.8157 175.124 75.8207 175.099 89.4527C175.074 102.829 163.726 113.56 145.87 113.527ZM145.894 100.535C153.19 100.548 157.871 96.0128 157.883 89.5488C157.895 83.1488 153.231 78.7881 145.935 78.7746C138.575 78.7609 133.895 83.1043 133.883 89.5042C133.871 95.9682 138.534 100.521 145.894 100.535ZM181.302 112.12L181.386 67.3203L202.442 67.3594L217.558 95.1635L217.609 67.3875L231.753 67.4138L231.67 112.214L211.254 112.176L195.563 83.8587L195.51 112.147L181.302 112.12Z" fill="#4281FF"/>
<mask id="path-4-outside-1_2349_1847" maskUnits="userSpaceOnUse" x="1" y="62" width="229" height="51" fill="black">
<rect fill="white" x="1" y="62" width="229" height="51"/>
<path d="M24.7025 111.344C15.8065 111.344 8.3185 108.976 3.1345 105.776V94.192C8.5745 97.584 15.6145 99.952 22.9105 99.952C27.9665 99.952 30.3985 99.056 30.3985 97.072C30.3985 95.344 29.0545 94.384 24.5745 93.616L18.1745 92.464C7.4225 90.544 2.8145 85.872 2.8145 78.384C2.8145 69.872 10.2385 63.856 25.7265 63.856C35.1985 63.856 41.2145 66.288 44.5425 68.336V79.472C41.3425 77.68 35.2625 75.568 27.7745 75.568C21.8225 75.568 19.5185 76.592 19.5185 78.256C19.5185 79.728 20.6705 80.368 24.7665 80.944L31.9345 82.096C42.3025 83.824 47.2305 87.856 47.2305 95.984C47.2305 105.328 38.2065 111.344 24.7025 111.344ZM80.482 111.472C62.562 111.472 51.298 100.656 51.298 87.344C51.298 73.712 62.562 63.728 80.546 63.728C98.338 63.728 109.666 73.712 109.666 87.344C109.666 100.72 98.338 111.472 80.482 111.472ZM80.482 98.48C87.778 98.48 92.45 93.936 92.45 87.472C92.45 81.072 87.778 76.72 80.482 76.72C73.122 76.72 68.45 81.072 68.45 87.472C68.45 93.936 73.122 98.48 80.482 98.48ZM142.92 111.472C125 111.472 113.736 100.656 113.736 87.344C113.736 73.712 125 63.728 142.984 63.728C160.776 63.728 172.104 73.712 172.104 87.344C172.104 100.72 160.776 111.472 142.92 111.472ZM142.92 98.48C150.216 98.48 154.888 93.936 154.888 87.472C154.888 81.072 150.216 76.72 142.92 76.72C135.56 76.72 130.888 81.072 130.888 87.472C130.888 93.936 135.56 98.48 142.92 98.48ZM178.349 110V65.2H199.405L214.573 92.976V65.2H228.717V110H208.301L192.557 81.712V110H178.349Z"/>
</mask>
<path d="M3.1345 105.776H2.1345V106.334L2.60923 106.627L3.1345 105.776ZM3.1345 94.192L3.6636 93.3434L2.1345 92.39V94.192H3.1345ZM24.5745 93.616L24.3973 94.6002L24.4055 94.6016L24.5745 93.616ZM18.1745 92.464L18.3517 91.4798L18.3503 91.4796L18.1745 92.464ZM44.5425 68.336H45.5425V67.7772L45.0666 67.4843L44.5425 68.336ZM44.5425 79.472L44.0539 80.3445L45.5425 81.1781V79.472H44.5425ZM24.7665 80.944L24.9252 79.9567L24.9155 79.9551L24.9058 79.9537L24.7665 80.944ZM31.9345 82.096L32.0989 81.1096L32.0932 81.1087L31.9345 82.096ZM24.7025 110.344C15.9781 110.344 8.67444 108.021 3.65977 104.925L2.60923 106.627C7.96256 109.931 15.6349 112.344 24.7025 112.344V110.344ZM4.1345 105.776V94.192H2.1345V105.776H4.1345ZM2.6054 95.0406C8.18536 98.5198 15.4065 100.952 22.9105 100.952V98.952C15.8225 98.952 8.96364 96.6482 3.6636 93.3434L2.6054 95.0406ZM22.9105 100.952C25.4655 100.952 27.4891 100.73 28.9062 100.191C29.6245 99.9172 30.2517 99.5384 30.703 99.0048C31.1707 98.4518 31.3985 97.7919 31.3985 97.072H29.3985C29.3985 97.3441 29.3223 97.5402 29.176 97.7132C29.0133 97.9056 28.7165 98.1228 28.1948 98.3214C27.1319 98.726 25.4115 98.952 22.9105 98.952V100.952ZM31.3985 97.072C31.3985 96.5059 31.2869 95.9433 30.988 95.417C30.6905 94.8935 30.2469 94.4751 29.691 94.1326C28.6187 93.472 26.9958 93.0165 24.7435 92.6304L24.4055 94.6016C26.6332 94.9835 27.9223 95.392 28.642 95.8354C28.9821 96.0449 29.1545 96.2385 29.249 96.405C29.3421 96.5687 29.3985 96.7741 29.3985 97.072H31.3985ZM24.7517 92.6318L18.3517 91.4798L17.9973 93.4482L24.3973 94.6002L24.7517 92.6318ZM18.3503 91.4796C13.068 90.5363 9.44395 88.9401 7.14706 86.783C4.88561 84.6593 3.8145 81.9011 3.8145 78.384H1.8145C1.8145 82.3549 3.04739 85.6767 5.77794 88.241C8.47305 90.7719 12.529 92.4717 17.9987 93.4484L18.3503 91.4796ZM3.8145 78.384C3.8145 74.4623 5.50386 71.1394 9.02323 68.756C12.5875 66.3422 18.0911 64.856 25.7265 64.856V62.856C17.8739 62.856 11.9215 64.3778 7.90177 67.1C3.83714 69.8526 1.8145 73.7937 1.8145 78.384H3.8145ZM25.7265 64.856C35.0195 64.856 40.8531 67.2398 44.0184 69.1877L45.0666 67.4843C41.5759 65.3362 35.3775 62.856 25.7265 62.856V64.856ZM43.5425 68.336V79.472H45.5425V68.336H43.5425ZM45.0311 78.5995C41.6845 76.7254 35.4366 74.568 27.7745 74.568V76.568C35.0884 76.568 41.0005 78.6346 44.0539 80.3445L45.0311 78.5995ZM27.7745 74.568C24.7695 74.568 22.5671 74.8229 21.0829 75.3446C20.3355 75.6073 19.6992 75.9617 19.2416 76.4505C18.762 76.9627 18.5185 77.5819 18.5185 78.256H20.5185C20.5185 78.0981 20.563 77.9653 20.7015 77.8175C20.8618 77.6463 21.1735 77.4327 21.7461 77.2314C22.9019 76.8251 24.8275 76.568 27.7745 76.568V74.568ZM18.5185 78.256C18.5185 78.7581 18.6183 79.2706 18.9138 79.7449C19.2065 80.2145 19.6364 80.5586 20.1451 80.8232C21.1157 81.3279 22.5878 81.6475 24.6272 81.9343L24.9058 79.9537C22.8492 79.6645 21.6973 79.3761 21.0679 79.0488C20.7766 78.8974 20.6625 78.7695 20.6112 78.6871C20.5627 78.6094 20.5185 78.4899 20.5185 78.256H18.5185ZM24.6078 81.9313L31.7758 83.0833L32.0932 81.1087L24.9252 79.9567L24.6078 81.9313ZM31.7701 83.0824C36.8823 83.9344 40.4865 85.332 42.8073 87.3885C45.0796 89.4019 46.2305 92.1456 46.2305 95.984H48.2305C48.2305 91.6944 46.9174 88.3581 44.1337 85.8915C41.3985 83.468 37.3547 81.9856 32.0989 81.1096L31.7701 83.0824ZM46.2305 95.984C46.2305 100.287 44.1709 103.833 40.4696 106.34C36.7389 108.868 31.3213 110.344 24.7025 110.344V112.344C31.5877 112.344 37.4341 110.812 41.5914 107.996C45.7781 105.159 48.2305 101.025 48.2305 95.984H46.2305ZM80.482 110.472C62.972 110.472 52.298 99.9714 52.298 87.344H50.298C50.298 101.341 62.152 112.472 80.482 112.472V110.472ZM52.298 87.344C52.298 80.8242 54.9825 75.2028 59.8164 71.1937C64.6636 67.1735 71.7335 64.728 80.546 64.728V62.728C71.3745 62.728 63.8204 65.2745 58.5396 69.6543C53.2455 74.0452 50.298 80.2318 50.298 87.344H52.298ZM80.546 64.728C89.2602 64.728 96.2986 67.1723 101.139 71.1932C105.967 75.2035 108.666 80.8258 108.666 87.344H110.666C110.666 80.2302 107.701 74.0445 102.417 69.6548C97.1454 65.2757 89.6238 62.728 80.546 62.728V64.728ZM108.666 87.344C108.666 100.032 97.9314 110.472 80.482 110.472V112.472C98.7446 112.472 110.666 101.408 110.666 87.344H108.666ZM80.482 99.48C84.3385 99.48 87.5891 98.2762 89.8848 96.1306C92.1854 93.9804 93.45 90.955 93.45 87.472H91.45C91.45 90.453 90.3786 92.9315 88.5192 94.6694C86.6549 96.4118 83.9215 97.48 80.482 97.48V99.48ZM93.45 87.472C93.45 84.0161 92.1815 81.0499 89.8741 78.9555C87.5752 76.8688 84.327 75.72 80.482 75.72V77.72C83.9331 77.72 86.6688 78.7472 88.5299 80.4365C90.3825 82.1181 91.45 84.5279 91.45 87.472H93.45ZM80.482 75.72C76.6072 75.72 73.343 76.8676 71.0353 78.9543C68.7187 81.049 67.45 84.0159 67.45 87.472H69.45C69.45 84.5281 70.5173 82.119 72.3767 80.4377C74.245 78.7484 76.9968 77.72 80.482 77.72V75.72ZM67.45 87.472C67.45 90.9551 68.7148 93.9814 71.0246 96.1319C73.3291 98.2775 76.5957 99.48 80.482 99.48V97.48C77.0083 97.48 74.2589 96.4105 72.3874 94.6681C70.5212 92.9306 69.45 90.4529 69.45 87.472H67.45ZM142.919 110.472C125.409 110.472 114.735 99.9714 114.735 87.344H112.735C112.735 101.341 124.59 112.472 142.919 112.472V110.472ZM114.735 87.344C114.735 80.8242 117.42 75.2028 122.254 71.1937C127.101 67.1735 134.171 64.728 142.984 64.728V62.728C133.812 62.728 126.258 65.2745 120.977 69.6543C115.683 74.0452 112.735 80.2318 112.735 87.344H114.735ZM142.984 64.728C151.698 64.728 158.736 67.1723 163.577 71.1932C168.404 75.2035 171.104 80.8258 171.104 87.344H173.104C173.104 80.2302 170.139 74.0445 164.854 69.6548C159.583 65.2757 152.061 62.728 142.984 62.728V64.728ZM171.104 87.344C171.104 100.032 160.369 110.472 142.919 110.472V112.472C161.182 112.472 173.104 101.408 173.104 87.344H171.104ZM142.919 99.48C146.776 99.48 150.027 98.2762 152.322 96.1306C154.623 93.9804 155.887 90.955 155.887 87.472H153.887C153.887 90.453 152.816 92.9315 150.957 94.6694C149.092 96.4118 146.359 97.48 142.919 97.48V99.48ZM155.887 87.472C155.887 84.0161 154.619 81.0499 152.312 78.9555C150.013 76.8688 146.764 75.72 142.919 75.72V77.72C146.371 77.72 149.106 78.7472 150.967 80.4365C152.82 82.1181 153.887 84.5279 153.887 87.472H155.887ZM142.919 75.72C139.045 75.72 135.781 76.8676 133.473 78.9543C131.156 81.049 129.887 84.0159 129.887 87.472H131.887C131.887 84.5281 132.955 82.119 134.814 80.4377C136.683 78.7484 139.434 77.72 142.919 77.72V75.72ZM129.887 87.472C129.887 90.9551 131.152 93.9814 133.462 96.1319C135.767 98.2775 139.033 99.48 142.919 99.48V97.48C139.446 97.48 136.696 96.4105 134.825 94.6681C132.959 92.9306 131.887 90.4529 131.887 87.472H129.887ZM178.349 110H177.349V111H178.349V110ZM178.349 65.2V64.2H177.349V65.2H178.349ZM199.405 65.2L200.283 64.7207L199.998 64.2H199.405V65.2ZM214.573 92.976L213.695 93.4553L215.573 92.976H214.573ZM214.573 65.2V64.2H213.573V65.2H214.573ZM228.717 65.2H229.717V64.2H228.717V65.2ZM228.717 110V111H229.717V110H228.717ZM208.301 110L207.427 110.486L207.713 111H208.301V110ZM192.557 81.712L193.431 81.2257L191.557 77.859V81.712H192.557ZM192.557 110V111H193.557V110H192.557ZM179.349 110V65.2H177.349V110H179.349ZM178.349 66.2H199.405V64.2H178.349V66.2ZM198.527 65.6793L213.695 93.4553L215.451 92.4967L200.283 64.7207L198.527 65.6793ZM215.573 92.976V65.2H213.573V92.976H215.573ZM214.573 66.2H228.717V64.2H214.573V66.2ZM227.717 65.2V110H229.717V65.2H227.717ZM228.717 109H208.301V111H228.717V109ZM209.175 109.514L193.431 81.2257L191.683 82.1983L207.427 110.486L209.175 109.514ZM191.557 81.712V110H193.557V81.712H191.557ZM192.557 109H178.349V111H192.557V109Z" fill="white" mask="url(#path-4-outside-1_2349_1847)"/>
</svg>
