<svg width="137" height="48" viewBox="0 0 137 48" fill="none" xmlns="http://www.w3.org/2000/svg">
    <path fill-rule="evenodd" clip-rule="evenodd"
        d="M13.5041 27.4531C13.2084 27.4531 12.9135 27.3657 12.7358 27.1293C12.4768 26.7847 12.1519 26.1371 12.1519 25.0563C12.1519 23.9755 12.4768 23.328 12.7358 22.9834C12.9135 22.747 13.2084 22.6595 13.5041 22.6595L22.0818 22.6595L17.6965 15.0625C17.5135 14.7454 17.449 14.3673 17.6171 14.0422C17.8168 13.6561 18.196 13.1295 18.8916 12.7136C19.5783 12.303 20.3148 12.1803 20.8403 12.1533C21.2973 12.1297 21.6964 12.4047 21.9252 12.801L26.2334 20.2645L29.4185 14.752C29.6011 14.4361 29.8659 14.1639 30.2262 14.1059C30.686 14.0319 31.4264 14.0551 32.371 14.5704C33.4682 15.169 33.7587 15.9006 33.8303 16.3224C33.8687 16.5485 33.7883 16.7696 33.6736 16.9682L30.3883 22.6595L35.0777 22.6595C35.5659 22.6595 36.0268 22.9017 36.1861 23.3633C36.3252 23.7665 36.4557 24.3365 36.4557 25.0563C36.4557 25.7762 36.3252 26.3462 36.1861 26.7494C36.0268 27.211 35.5659 27.4531 35.0777 27.4531L30.383 27.4531L32.7218 31.5049C32.8532 31.7326 32.9256 31.9951 32.836 32.2422C32.7012 32.614 32.3561 33.1969 31.4723 33.7447C30.6262 34.2692 29.848 34.3533 29.3466 34.3325C28.9722 34.3169 28.6679 34.0692 28.4807 33.7447L26.2351 29.8546L23.1233 35.2453C22.9048 35.624 22.5266 35.8917 22.0923 35.8421C21.6609 35.7929 21.0601 35.6438 20.3893 35.2427C19.7409 34.855 19.3067 34.4192 19.0317 34.0738C18.738 33.7049 18.7672 33.2047 19.0029 32.7963L22.0872 27.4531L13.5041 27.4531ZM27.7543 27.3775C28.9846 26.6671 29.3611 25.0461 28.5409 23.6251C27.7206 22.2041 26.1578 21.7264 24.9087 22.4478C23.6784 23.1582 23.3106 24.7506 24.1309 26.1717C24.9512 27.5927 26.5241 28.0879 27.7543 27.3775Z"
        fill="#4281FF" />
    <path d="M120.973 29.4076V20.8891H124.011V29.4076H120.973Z" fill="white" />
    <path
        d="M109.823 29.4076L112.824 20.9013H117.175L120.152 29.4076H117.065L116.543 27.7792H113.347L112.824 29.4076H109.823ZM113.906 26.078H115.996L114.951 22.8334L113.906 26.078Z"
        fill="white" />
    <path
        d="M109.059 27.913C109.443 28.5787 109.3 29.3185 108.766 29.6269C108.232 29.9353 107.528 29.6842 107.144 29.0185C106.76 28.3529 106.899 27.626 107.433 27.3176C107.975 27.0044 108.674 27.2473 109.059 27.913Z"
        fill="white" />
    <path
        d="M97.3737 29.4076V20.6582H100.339V24C100.837 22.639 101.736 21.9828 103.194 21.9828C105.114 21.9828 106.123 23.1493 106.123 25.3853V29.4076H103.146V26.0172C103.146 24.9478 102.684 24.3888 101.809 24.3888C100.837 24.3888 100.339 24.96 100.339 26.0658V29.4076H97.3737Z"
        fill="white" />
    <path
        d="M93.1188 29.6506C90.0686 29.6506 88.4889 27.9251 88.4889 25.7863C88.4889 23.6355 90.1415 21.9828 93.1674 21.9828C94.577 21.9828 95.5248 22.323 96.1932 22.7484V24.9722C95.6828 24.6198 94.9172 24.316 93.9937 24.316C92.4504 24.316 91.5876 24.9479 91.5876 25.8106C91.5876 26.637 92.3653 27.3053 94.0059 27.3053C94.8686 27.3053 95.695 27.0137 96.2175 26.6977V28.8486C95.3669 29.359 94.3218 29.6506 93.1188 29.6506Z"
        fill="white" />
    <path
        d="M82.2727 29.6506C80.6201 29.6506 79.6722 28.6542 79.6722 27.3418C79.6722 25.9808 80.7051 25.0208 82.4429 25.0208C83.4393 25.0208 84.1563 25.3003 84.7153 25.9686C84.6302 24.8385 83.6824 24.2795 82.3821 24.2795C81.495 24.2795 80.6687 24.5955 80.0125 25.1544V22.9306C80.7781 22.4081 81.8596 21.9828 83.3543 21.9828C86.1006 21.9828 87.6074 23.3438 87.6074 25.8349V29.4076H84.7274V28.5205C84.2292 29.2496 83.4272 29.6506 82.2727 29.6506ZM83.4758 27.9737C84.2049 27.9737 84.7274 27.6577 84.7274 27.1595C84.7274 26.6856 84.2292 26.3696 83.4879 26.3696C82.8074 26.3696 82.3821 26.6977 82.3821 27.1717C82.3821 27.6577 82.8074 27.9737 83.4758 27.9737Z"
        fill="white" />
    <path
        d="M75.2744 29.6506C72.285 29.6506 70.4865 28.0466 70.4865 25.7499C70.4865 23.5868 72.1149 21.9828 74.8855 21.9828C77.6197 21.9828 78.9321 23.4046 78.9321 25.5676V26.3818H73.5002C73.8526 27.0258 74.7032 27.4025 76.0399 27.4025C77.1093 27.4025 77.9235 27.1352 78.689 26.6734V28.7757C77.9113 29.2861 76.6475 29.6506 75.2744 29.6506ZM73.4273 25.0815H76.5382C76.4166 24.4618 75.8941 24.1094 75.0313 24.1094C74.1564 24.1094 73.5974 24.4982 73.4273 25.0815Z"
        fill="white" />
    <path
        d="M60.5768 29.4076V20.9013H66.5676C68.5849 20.9013 69.8487 22.0435 69.8487 23.7691C69.8487 25.2881 68.8887 26.3453 67.4183 26.4668L69.9337 29.4076H66.3611L63.6147 25.92V29.4076H60.5768ZM63.6147 25.0208H65.3281C66.2274 25.0208 66.7013 24.6683 66.7013 24C66.7013 23.3681 66.2638 23.04 65.4132 23.04H63.6147V25.0208Z"
        fill="white" />
    <path
        d="M50.5106 29.4076V22.2987H53.4514V24.0608C53.9496 22.6511 54.8488 21.9828 56.3314 21.9828C58.2514 21.9828 59.26 23.1494 59.26 25.3853V29.4076H56.2828V26.0172C56.2828 24.9479 55.821 24.3889 54.946 24.3889C53.9739 24.3889 53.4757 24.96 53.4757 26.0658V29.4076H50.5106Z"
        fill="white" />
    <path
        d="M41.3165 29.4076V20.9013H49.2031V23.0643H44.3544V24.1094H48.96V26.1023H44.3544V27.2445H49.2395V29.4076H41.3165Z"
        fill="white" />
</svg>