<svg width="237" height="119" viewBox="0 0 237 119" fill="none" xmlns="http://www.w3.org/2000/svg">
<path d="M23.0392 34.3574C9.85418 34.3574 2.47418 27.1574 2.47418 17.7524C2.47418 8.21245 9.98918 0.787446 23.3542 0.787446C28.8892 0.787446 33.1642 1.95745 36.9442 3.84745V13.1624C34.5142 11.4524 30.5542 10.1474 26.0542 10.1474C18.8542 10.1474 14.7592 13.1624 14.7592 17.4824C14.7592 21.8474 18.9442 24.9074 26.0542 24.9074C30.6442 24.9074 34.6042 23.5574 37.0342 21.6224V30.7124C32.8042 33.1874 28.7092 34.3574 23.0392 34.3574ZM61.0508 34.3574C48.4508 34.3574 40.5308 26.7524 40.5308 17.3924C40.5308 7.80745 48.4508 0.787446 61.0958 0.787446C73.6058 0.787446 81.5708 7.80745 81.5708 17.3924C81.5708 26.7974 73.6058 34.3574 61.0508 34.3574ZM61.0508 25.2224C66.1808 25.2224 69.4658 22.0274 69.4658 17.4824C69.4658 12.9824 66.1808 9.92245 61.0508 9.92245C55.8758 9.92245 52.5908 12.9824 52.5908 17.4824C52.5908 22.0274 55.8758 25.2224 61.0508 25.2224ZM85.0622 33.3224L87.0422 1.82245H103.557L108.912 19.5074L114.402 1.82245H130.872L133.257 33.3224H122.322L120.837 11.0924L114.087 33.3224H102.792L96.6272 12.0374L95.3672 33.3224H85.0622ZM138.169 33.3224V1.77745H149.419V33.3224H138.169ZM155.352 33.3224V1.82245H170.157L180.822 21.3524V1.82245H190.767V33.3224H176.412L165.342 13.4324V33.3224H155.352ZM215.784 34.3124C202.824 34.3124 195.174 27.2474 195.174 17.6174C195.174 8.48245 202.104 0.832446 217.044 0.832446C223.344 0.832446 228.114 2.18245 231.534 3.71245V12.8024C228.654 11.4524 224.469 10.3724 219.564 10.3724C210.114 10.3724 206.919 14.1074 206.919 18.0674C206.919 22.3874 210.474 25.2674 216.369 25.2674C220.374 25.2674 223.074 23.9624 224.154 21.6674H211.149L213.039 14.1524H234.369V18.4724C234.369 28.9574 227.034 34.3124 215.784 34.3124Z" fill="white"/>
<path d="M27.6537 100.179C18.7577 100.163 11.2741 97.7808 6.09608 94.5712L6.11757 82.9872C11.5513 86.3893 18.5869 88.7704 25.8829 88.7839C30.9388 88.7933 33.3725 87.9018 33.3762 85.9178C33.3794 84.1898 32.0372 83.2273 27.5586 82.451L21.1608 81.2871C10.4123 79.3472 5.81301 74.6666 5.8269 67.1787C5.84269 58.6667 13.2778 52.6645 28.7658 52.6932C38.2378 52.7108 44.2493 55.1539 47.5735 57.2081L47.5528 68.3441C44.3561 66.5461 38.2801 64.4229 30.7921 64.409C24.8401 64.3979 22.5342 65.4176 22.5311 67.0816C22.5284 68.5536 23.6792 69.1958 27.7741 69.7794L34.94 70.9447C45.3047 72.6919 50.2253 76.733 50.2102 84.861C50.1928 94.205 41.1577 100.204 27.6537 100.179ZM83.4329 100.411C65.5129 100.377 54.269 89.5406 54.2937 76.2286C54.319 62.5966 65.6015 52.6335 83.5855 52.6669C101.377 52.6999 112.687 62.7049 112.662 76.3369C112.637 89.7128 101.289 100.444 83.4329 100.411ZM83.457 87.4187C90.753 87.4322 95.4334 82.8969 95.4454 76.4329C95.4573 70.0329 90.7933 65.6723 83.4974 65.6587C76.1374 65.6451 71.4573 69.9884 71.4454 76.3884C71.4334 82.8524 76.097 87.4051 83.457 87.4187ZM145.87 100.527C127.95 100.493 116.706 89.6564 116.731 76.3444C116.756 62.7124 128.039 52.7494 146.023 52.7827C163.815 52.8157 175.124 62.8207 175.099 76.4527C175.074 89.8287 163.726 100.56 145.87 100.527ZM145.894 87.5345C153.19 87.5481 157.871 83.0128 157.883 76.5488C157.895 70.1488 153.231 65.7881 145.935 65.7746C138.575 65.7609 133.895 70.1043 133.883 76.5042C133.871 82.9682 138.534 87.5209 145.894 87.5345ZM181.302 99.1203L181.386 54.3203L202.442 54.3594L217.558 82.1635L217.609 54.3875L231.753 54.4138L231.67 99.2137L211.254 99.1758L195.563 70.8587L195.51 99.1466L181.302 99.1203Z" fill="#4281FF"/>
<mask id="path-3-outside-1_0_1" maskUnits="userSpaceOnUse" x="1" y="49" width="229" height="51" fill="black">
<rect fill="white" x="1" y="49" width="229" height="51"/>
<path d="M24.7025 98.344C15.8065 98.344 8.3185 95.976 3.1345 92.776V81.192C8.5745 84.584 15.6145 86.952 22.9105 86.952C27.9665 86.952 30.3985 86.056 30.3985 84.072C30.3985 82.344 29.0545 81.384 24.5745 80.616L18.1745 79.464C7.4225 77.544 2.8145 72.872 2.8145 65.384C2.8145 56.872 10.2385 50.856 25.7265 50.856C35.1985 50.856 41.2145 53.288 44.5425 55.336V66.472C41.3425 64.68 35.2625 62.568 27.7745 62.568C21.8225 62.568 19.5185 63.592 19.5185 65.256C19.5185 66.728 20.6705 67.368 24.7665 67.944L31.9345 69.096C42.3025 70.824 47.2305 74.856 47.2305 82.984C47.2305 92.328 38.2065 98.344 24.7025 98.344ZM80.482 98.472C62.562 98.472 51.298 87.656 51.298 74.344C51.298 60.712 62.562 50.728 80.546 50.728C98.338 50.728 109.666 60.712 109.666 74.344C109.666 87.72 98.338 98.472 80.482 98.472ZM80.482 85.48C87.778 85.48 92.45 80.936 92.45 74.472C92.45 68.072 87.778 63.72 80.482 63.72C73.122 63.72 68.45 68.072 68.45 74.472C68.45 80.936 73.122 85.48 80.482 85.48ZM142.92 98.472C125 98.472 113.736 87.656 113.736 74.344C113.736 60.712 125 50.728 142.984 50.728C160.776 50.728 172.104 60.712 172.104 74.344C172.104 87.72 160.776 98.472 142.92 98.472ZM142.92 85.48C150.216 85.48 154.888 80.936 154.888 74.472C154.888 68.072 150.216 63.72 142.92 63.72C135.56 63.72 130.888 68.072 130.888 74.472C130.888 80.936 135.56 85.48 142.92 85.48ZM178.349 97V52.2H199.405L214.573 79.976V52.2H228.717V97H208.301L192.557 68.712V97H178.349Z"/>
</mask>
<path d="M3.1345 92.776H2.1345V93.3339L2.60923 93.6269L3.1345 92.776ZM3.1345 81.192L3.6636 80.3434L2.1345 79.39V81.192H3.1345ZM24.5745 80.616L24.3973 81.6002L24.4055 81.6016L24.5745 80.616ZM18.1745 79.464L18.3517 78.4798L18.3503 78.4796L18.1745 79.464ZM44.5425 55.336H45.5425V54.7772L45.0666 54.4843L44.5425 55.336ZM44.5425 66.472L44.0539 67.3445L45.5425 68.1781V66.472H44.5425ZM24.7665 67.944L24.9252 66.9567L24.9155 66.9551L24.9058 66.9537L24.7665 67.944ZM31.9345 69.096L32.0989 68.1096L32.0932 68.1087L31.9345 69.096ZM24.7025 97.344C15.9781 97.344 8.67444 95.0205 3.65977 91.9251L2.60923 93.6269C7.96256 96.9315 15.6349 99.344 24.7025 99.344V97.344ZM4.1345 92.776V81.192H2.1345V92.776H4.1345ZM2.6054 82.0406C8.18536 85.5198 15.4065 87.952 22.9105 87.952V85.952C15.8225 85.952 8.96364 83.6482 3.6636 80.3434L2.6054 82.0406ZM22.9105 87.952C25.4655 87.952 27.4891 87.73 28.9062 87.1906C29.6245 86.9172 30.2517 86.5384 30.703 86.0048C31.1707 85.4518 31.3985 84.7919 31.3985 84.072H29.3985C29.3985 84.3441 29.3223 84.5402 29.176 84.7132C29.0133 84.9056 28.7165 85.1228 28.1948 85.3214C27.1319 85.726 25.4115 85.952 22.9105 85.952V87.952ZM31.3985 84.072C31.3985 83.5059 31.2869 82.9433 30.988 82.417C30.6905 81.8935 30.2469 81.4751 29.691 81.1326C28.6187 80.472 26.9958 80.0165 24.7435 79.6304L24.4055 81.6016C26.6332 81.9835 27.9223 82.392 28.642 82.8354C28.9821 83.0449 29.1545 83.2385 29.249 83.405C29.3421 83.5687 29.3985 83.7741 29.3985 84.072H31.3985ZM24.7517 79.6318L18.3517 78.4798L17.9973 80.4482L24.3973 81.6002L24.7517 79.6318ZM18.3503 78.4796C13.068 77.5363 9.44395 75.9401 7.14706 73.783C4.88561 71.6593 3.8145 68.9011 3.8145 65.384H1.8145C1.8145 69.3549 3.04739 72.6767 5.77794 75.241C8.47305 77.7719 12.529 79.4717 17.9987 80.4484L18.3503 78.4796ZM3.8145 65.384C3.8145 61.4623 5.50386 58.1394 9.02323 55.756C12.5875 53.3422 18.0911 51.856 25.7265 51.856V49.856C17.8739 49.856 11.9215 51.3778 7.90177 54.1C3.83714 56.8526 1.8145 60.7937 1.8145 65.384H3.8145ZM25.7265 51.856C35.0195 51.856 40.8531 54.2398 44.0184 56.1877L45.0666 54.4843C41.5759 52.3362 35.3775 49.856 25.7265 49.856V51.856ZM43.5425 55.336V66.472H45.5425V55.336H43.5425ZM45.0311 65.5995C41.6845 63.7254 35.4366 61.568 27.7745 61.568V63.568C35.0884 63.568 41.0005 65.6346 44.0539 67.3445L45.0311 65.5995ZM27.7745 61.568C24.7695 61.568 22.5671 61.8229 21.0829 62.3446C20.3355 62.6073 19.6992 62.9617 19.2416 63.4505C18.762 63.9627 18.5185 64.5819 18.5185 65.256H20.5185C20.5185 65.0981 20.563 64.9653 20.7015 64.8175C20.8618 64.6463 21.1735 64.4327 21.7461 64.2314C22.9019 63.8251 24.8275 63.568 27.7745 63.568V61.568ZM18.5185 65.256C18.5185 65.7581 18.6183 66.2706 18.9138 66.7449C19.2065 67.2145 19.6364 67.5586 20.1451 67.8232C21.1157 68.3279 22.5878 68.6475 24.6272 68.9343L24.9058 66.9537C22.8492 66.6645 21.6973 66.3761 21.0679 66.0488C20.7766 65.8974 20.6625 65.7695 20.6112 65.6871C20.5627 65.6094 20.5185 65.4899 20.5185 65.256H18.5185ZM24.6078 68.9313L31.7758 70.0833L32.0932 68.1087L24.9252 66.9567L24.6078 68.9313ZM31.7701 70.0824C36.8823 70.9344 40.4865 72.332 42.8073 74.3885C45.0796 76.4019 46.2305 79.1456 46.2305 82.984H48.2305C48.2305 78.6944 46.9174 75.3581 44.1337 72.8915C41.3985 70.468 37.3547 68.9856 32.0989 68.1096L31.7701 70.0824ZM46.2305 82.984C46.2305 87.2875 44.1709 90.8325 40.4696 93.3401C36.7389 95.8676 31.3213 97.344 24.7025 97.344V99.344C31.5877 99.344 37.4341 97.8124 41.5914 94.9959C45.7781 92.1595 48.2305 88.0245 48.2305 82.984H46.2305ZM80.482 97.472C62.972 97.472 52.298 86.9714 52.298 74.344H50.298C50.298 88.3406 62.152 99.472 80.482 99.472V97.472ZM52.298 74.344C52.298 67.8242 54.9825 62.2028 59.8164 58.1937C64.6636 54.1735 71.7335 51.728 80.546 51.728V49.728C71.3745 49.728 63.8204 52.2745 58.5396 56.6543C53.2455 61.0452 50.298 67.2318 50.298 74.344H52.298ZM80.546 51.728C89.2602 51.728 96.2986 54.1723 101.139 58.1932C105.967 62.2035 108.666 67.8258 108.666 74.344H110.666C110.666 67.2302 107.701 61.0445 102.417 56.6548C97.1454 52.2757 89.6238 49.728 80.546 49.728V51.728ZM108.666 74.344C108.666 87.0325 97.9314 97.472 80.482 97.472V99.472C98.7446 99.472 110.666 88.4075 110.666 74.344H108.666ZM80.482 86.48C84.3385 86.48 87.5891 85.2762 89.8848 83.1306C92.1854 80.9804 93.45 77.955 93.45 74.472H91.45C91.45 77.453 90.3786 79.9315 88.5192 81.6694C86.6549 83.4118 83.9215 84.48 80.482 84.48V86.48ZM93.45 74.472C93.45 71.0161 92.1815 68.0499 89.8741 65.9555C87.5752 63.8688 84.327 62.72 80.482 62.72V64.72C83.9331 64.72 86.6688 65.7472 88.5299 67.4365C90.3825 69.1181 91.45 71.5279 91.45 74.472H93.45ZM80.482 62.72C76.6072 62.72 73.343 63.8676 71.0353 65.9543C68.7187 68.049 67.45 71.0159 67.45 74.472H69.45C69.45 71.5281 70.5173 69.119 72.3767 67.4377C74.245 65.7484 76.9968 64.72 80.482 64.72V62.72ZM67.45 74.472C67.45 77.9551 68.7148 80.9814 71.0246 83.1319C73.3291 85.2775 76.5957 86.48 80.482 86.48V84.48C77.0083 84.48 74.2589 83.4105 72.3874 81.6681C70.5212 79.9306 69.45 77.4529 69.45 74.472H67.45ZM142.919 97.472C125.409 97.472 114.735 86.9714 114.735 74.344H112.735C112.735 88.3406 124.59 99.472 142.919 99.472V97.472ZM114.735 74.344C114.735 67.8242 117.42 62.2028 122.254 58.1937C127.101 54.1735 134.171 51.728 142.984 51.728V49.728C133.812 49.728 126.258 52.2745 120.977 56.6543C115.683 61.0452 112.735 67.2318 112.735 74.344H114.735ZM142.984 51.728C151.698 51.728 158.736 54.1723 163.577 58.1932C168.404 62.2035 171.104 67.8258 171.104 74.344H173.104C173.104 67.2302 170.139 61.0445 164.854 56.6548C159.583 52.2757 152.061 49.728 142.984 49.728V51.728ZM171.104 74.344C171.104 87.0325 160.369 97.472 142.919 97.472V99.472C161.182 99.472 173.104 88.4075 173.104 74.344H171.104ZM142.919 86.48C146.776 86.48 150.027 85.2762 152.322 83.1306C154.623 80.9804 155.887 77.955 155.887 74.472H153.887C153.887 77.453 152.816 79.9315 150.957 81.6694C149.092 83.4118 146.359 84.48 142.919 84.48V86.48ZM155.887 74.472C155.887 71.0161 154.619 68.0499 152.312 65.9555C150.013 63.8688 146.764 62.72 142.919 62.72V64.72C146.371 64.72 149.106 65.7472 150.967 67.4365C152.82 69.1181 153.887 71.5279 153.887 74.472H155.887ZM142.919 62.72C139.045 62.72 135.781 63.8676 133.473 65.9543C131.156 68.049 129.887 71.0159 129.887 74.472H131.887C131.887 71.5281 132.955 69.119 134.814 67.4377C136.683 65.7484 139.434 64.72 142.919 64.72V62.72ZM129.887 74.472C129.887 77.9551 131.152 80.9814 133.462 83.1319C135.767 85.2775 139.033 86.48 142.919 86.48V84.48C139.446 84.48 136.696 83.4105 134.825 81.6681C132.959 79.9306 131.887 77.4529 131.887 74.472H129.887ZM178.349 97H177.349V98H178.349V97ZM178.349 52.2V51.2H177.349V52.2H178.349ZM199.405 52.2L200.283 51.7207L199.998 51.2H199.405V52.2ZM214.573 79.976L213.695 80.4553L215.573 79.976H214.573ZM214.573 52.2V51.2H213.573V52.2H214.573ZM228.717 52.2H229.717V51.2H228.717V52.2ZM228.717 97V98H229.717V97H228.717ZM208.301 97L207.427 97.4863L207.713 98H208.301V97ZM192.557 68.712L193.431 68.2257L191.557 64.859V68.712H192.557ZM192.557 97V98H193.557V97H192.557ZM179.349 97V52.2H177.349V97H179.349ZM178.349 53.2H199.405V51.2H178.349V53.2ZM198.527 52.6793L213.695 80.4553L215.451 79.4967L200.283 51.7207L198.527 52.6793ZM215.573 79.976V52.2H213.573V79.976H215.573ZM214.573 53.2H228.717V51.2H214.573V53.2ZM227.717 52.2V97H229.717V52.2H227.717ZM228.717 96H208.301V98H228.717V96ZM209.175 96.5137L193.431 68.2257L191.683 69.1983L207.427 97.4863L209.175 96.5137ZM191.557 68.712V97H193.557V68.712H191.557ZM192.557 96H178.349V98H192.557V96Z" fill="white" mask="url(#path-3-outside-1_0_1)"/>
</svg>
