<svg width="1em" height="1em" viewBox="0 0 48 48" fill="none" xmlns="http://www.w3.org/2000/svg">
<rect width="48" height="48" rx="24" fill="white"/>
<path d="M19.758 27.648V28.716H16.518V31.248H19.398V32.304H16.518V34.932H19.758V36H15.15V27.648H19.758ZM27.875 27.66L25.271 31.836L27.863 36H26.327L24.443 32.976L22.679 36H21.143L23.735 31.836L21.143 27.66H22.679L24.563 30.696L26.339 27.66H27.875ZM32.2448 27.66C33.1888 27.66 33.9168 27.896 34.4288 28.368C34.9408 28.832 35.1968 29.416 35.1968 30.12C35.1968 30.816 34.9528 31.408 34.4648 31.896C33.9848 32.376 33.2448 32.616 32.2448 32.616H30.7328V36H29.3648V27.66H32.2448ZM30.7328 31.548H32.2448C32.7648 31.548 33.1528 31.424 33.4088 31.176C33.6648 30.928 33.7928 30.584 33.7928 30.144C33.7928 29.696 33.6648 29.348 33.4088 29.1C33.1528 28.852 32.7648 28.728 32.2448 28.728H30.7328V31.548Z" fill="black"/>
<path d="M23.2197 16.4074L18.25 21.3799L19.2456 22.3755L24.2153 17.403L29.1878 22.3755L30.1834 21.3799L24.2153 15.4146L23.2197 16.4074ZM19.2428 16.7505L24.2153 11.778L29.1878 16.7505L30.1834 15.7549L25.2109 10.7824L24.2153 9.78955L23.2197 10.7852L18.25 15.7549L19.2428 16.7505Z" fill="#231815"/>
</svg>
