<svg width="1em" height="1em" viewBox="0 0 62 61" fill="none" xmlns="http://www.w3.org/2000/svg">
    <path
        d="M61.0933 33.9599C61.0933 31.7988 60.3473 29.9726 58.8554 28.4803C57.3635 26.9881 55.5376 26.2419 53.3771 26.2419V13.8934C53.3771 12.1955 52.7729 10.7423 51.5639 9.533C50.3549 8.32374 48.902 7.71948 47.2045 7.71948H34.8586V17.8289H43.2706V41.6786H53.3778C55.5384 41.6786 57.3643 40.9332 58.8562 39.441C60.3481 37.9487 61.094 36.1224 61.094 33.9614L61.0933 33.9599Z"
        fill="#EA4335" />
    <path
        d="M27.1416 0.0007505C24.9811 0.0007505 23.1552 0.746873 21.6633 2.23912C20.1714 3.73136 19.4254 5.55764 19.4254 7.71869H7.07954C5.38199 7.71869 3.92909 8.32295 2.7201 9.5322C1.5111 10.7415 0.906982 12.1947 0.906982 13.8926V17.8274H34.8587V7.71794C34.8587 5.55689 34.1127 3.73061 32.6208 2.23837C31.1289 0.746123 29.303 0 27.1424 0L27.1416 0.0007505Z"
        fill="#4285F4" />
    <path
        d="M18.5546 50.0916H11.0132C12.0301 49.4993 13.002 48.4335 13.9213 47.6543C18.0173 44.1834 20.2732 39.3201 20.2732 33.9591C20.2732 28.5981 18.0173 23.7356 13.9213 20.2639C13.002 19.4848 12.0301 18.4189 11.0132 17.8267H0.906006V25.6234C3.37503 25.6234 5.53561 26.4078 7.38775 27.9774C9.23989 29.5469 10.166 31.5406 10.166 33.9591C10.166 36.3776 9.23989 38.3713 7.38775 39.9409C5.53561 41.5104 3.37503 42.2948 0.906006 42.2948V54.0264C0.906006 55.7243 1.51013 57.1775 2.71912 58.3868C3.92812 59.596 5.38101 60.2003 7.07856 60.2003H18.5539V50.0908L18.5546 50.0916Z"
        fill="#34A853" />
    <path
        d="M43.2694 50.0917H18.5544V60.2012H47.2033C48.9009 60.2012 50.3545 59.5969 51.5628 58.3877C52.7718 57.1784 53.3759 55.7252 53.3759 54.0273V41.6787H43.2687V50.0925L43.2694 50.0917Z"
        fill="#FBBC04" />
</svg>